<svg width="24" height="24" viewBox="0 0 24 24" fill="none" xmlns="http://www.w3.org/2000/svg">
<g clip-path="url(#clip0_7942_4807)">
<path d="M24.0002 24H12.0182C9.67721 23.9989 7.38764 23.3131 5.43154 22.027C3.47543 20.7409 1.93821 18.9108 1.00923 16.762C0.0802429 14.6132 -0.199936 12.2396 0.203201 9.93353C0.606338 7.62749 1.67518 5.48972 3.27809 3.78354C4.88099 2.07737 6.94794 0.877292 9.22436 0.331138C11.5008 -0.215015 13.8872 -0.0833956 16.0898 0.709785C18.2923 1.50297 20.2148 2.92307 21.6203 4.79517C23.0259 6.66727 23.8531 8.90961 24.0002 11.246V11.309V24ZM12.0182 2C9.36605 2 6.82252 3.05357 4.94715 4.92893C3.07179 6.8043 2.01822 9.34784 2.01822 12C2.01822 14.6522 3.07179 17.1957 4.94715 19.0711C6.82252 20.9464 9.36605 22 12.0182 22H22.0002V11.341C21.8287 8.80932 20.7029 6.43703 18.8502 4.70323C16.9974 2.96943 14.5557 2.00332 12.0182 2Z" fill="white"/>
<path d="M13 7H7V9H13V7Z" fill="white"/>
<path d="M17 11H7V13H17V11Z" fill="white"/>
<path d="M17 15H7V17H17V15Z" fill="white"/>
</g>
<defs>
<clipPath id="clip0_7942_4807">
<rect width="24" height="24" fill="white"/>
</clipPath>
</defs>
</svg>
