<svg width="25" height="24" viewBox="0 0 25 24" fill="none" xmlns="http://www.w3.org/2000/svg">
<g clip-path="url(#clip0_6216_1230)">
<path d="M12.2177 24.008L11.5054 23.4105C10.5236 22.6058 1.9502 15.3591 1.9502 10.0583C1.9502 4.50839 6.54711 0.00928116 12.2177 0.00928116C17.8882 0.00928116 22.4851 4.50839 22.4851 10.0583C22.4851 15.3592 13.9118 22.6059 12.934 23.4145L12.2177 24.008ZM12.2177 2.18217C7.77535 2.18709 4.1754 5.71045 4.17037 10.0583C4.17037 13.3883 9.44503 18.7081 12.2177 21.1429C14.9903 18.7071 20.265 13.3843 20.265 10.0583C20.2599 5.71045 16.66 2.18714 12.2177 2.18217Z" fill="#676767"/>
<path d="M12.2174 14.0416C9.96964 14.0416 8.14746 12.2582 8.14746 10.0583C8.14746 7.85836 9.96964 6.07495 12.2174 6.07495C14.4652 6.07495 16.2873 7.85836 16.2873 10.0583C16.2873 12.2582 14.4652 14.0416 12.2174 14.0416ZM12.2174 8.06658C11.0935 8.06658 10.1824 8.95828 10.1824 10.0582C10.1824 11.1582 11.0935 12.0499 12.2174 12.0499C13.3413 12.0499 14.2524 11.1582 14.2524 10.0582C14.2524 8.95828 13.3413 8.06658 12.2174 8.06658Z" fill="#676767"/>
</g>
<defs>
<clipPath id="clip0_6216_1230">
<rect width="24.5217" height="24" fill="white"/>
</clipPath>
</defs>
</svg>
